<svg xmlns="http://www.w3.org/2000/svg" version="1.1" xmlns:xlink="http://www.w3.org/1999/xlink" xmlns:svgjs="http://svgjs.com/svgjs" width="1000" height="1000"><rect width="1000" height="1000" rx="200" ry="200" fill="#ffffff"></rect><g transform="matrix(0.48828125,0,0,0.48828125,0,0)"><svg xmlns="http://www.w3.org/2000/svg" version="1.1" xmlns:xlink="http://www.w3.org/1999/xlink" xmlns:svgjs="http://svgjs.com/svgjs" width="2048" height="2048"><svg xmlns="http://www.w3.org/2000/svg" xml:space="preserve" width="2048" height="2048" style="shape-rendering:geometricPrecision;text-rendering:geometricPrecision;image-rendering:optimizeQuality;fill-rule:evenodd;clip-rule:evenodd"><defs><style>.fil0,.fil1{fill:#424242}.fil0{fill-rule:nonzero}</style></defs><g id="Layer_x0020_1"><g id="_325603432"><path id="_325604608" class="fil0" d="M428 1433.75c47.492 0 90.494 19.253 121.619 50.381 31.128 31.126 50.381 74.127 50.381 121.62 0 47.491-19.253 90.492-50.381 121.62-31.126 31.126-74.127 50.38-121.619 50.38-47.492 0-90.493-19.254-121.621-50.38-31.126-31.128-50.38-74.128-50.38-121.62 0-47.493 19.254-90.495 50.38-121.62 31.128-31.128 74.128-50.381 121.621-50.381z"></path><path id="_325604008" class="fil0" d="M1482.5 1336.19c37.136 0 70.763 15.058 95.105 39.397 24.341 24.341 39.397 57.968 39.397 95.105 0 37.136-15.056 70.763-39.397 95.105-24.342 24.34-57.969 39.396-95.105 39.396s-70.763-15.055-95.105-39.396c-24.339-24.342-39.397-57.969-39.397-95.105s15.058-70.764 39.397-95.105c24.342-24.34 57.969-39.397 95.105-39.397z"></path><path id="_325603912" class="fil0" d="M929.215 806.195c59.919 0 114.169 24.29 153.439 63.56 39.27 39.27 63.56 93.52 63.56 153.439s-24.29 114.169-63.56 153.439c-39.27 39.27-93.52 63.56-153.439 63.56s-114.169-24.29-153.439-63.56c-39.27-39.27-63.56-93.521-63.56-153.44 0-59.918 24.29-114.168 63.56-153.438 39.27-39.27 93.52-63.56 153.439-63.56z"></path><path id="_325603624" class="fil0" d="M428 270.252c47.492 0 90.494 19.254 121.619 50.38C580.747 351.76 600 394.76 600 442.253c0 47.492-19.253 90.494-50.381 121.619C518.493 595 475.492 614.253 428 614.253c-47.492 0-90.493-19.253-121.621-50.381-31.126-31.126-50.38-74.127-50.38-121.619 0-47.492 19.254-90.493 50.38-121.621 31.128-31.126 74.128-50.38 121.621-50.38z"></path><path id="_325603168" class="fil1" d="m499.63 1485.74 289.588-340.224c17.041-20.02 47.395-22.478 67.425-5.443 20.031 17.038 22.489 47.408 5.442 67.434l-289.588 340.224c-17.041 20.021-47.395 22.478-67.424 5.443-20.032-17.037-22.49-47.407-5.443-67.434z"></path><path id="_325603576" class="fil1" d="M773.261 910.355 499.403 559.41c-16.253-20.829-12.559-50.939 8.265-67.204 20.826-16.266 50.953-12.568 67.212 8.267l273.858 350.945c16.253 20.829 12.559 50.939-8.265 67.204-20.825 16.266-50.953 12.568-67.212-8.267z"></path><path id="_325603528" class="fil0" d="M1620 270.252c47.492 0 90.493 19.254 121.621 50.38 31.126 31.128 50.38 74.128 50.38 121.621 0 47.492-19.254 90.494-50.38 121.619-31.128 31.128-74.128 50.381-121.621 50.381-47.492 0-90.494-19.253-121.619-50.381-31.128-31.126-50.381-74.127-50.381-121.619 0-47.492 19.253-90.493 50.381-121.621 31.126-31.126 74.127-50.38 121.619-50.38z"></path><path id="_325603816" style="fill:none;fill-rule:nonzero" d="m1518.86 523.448-460.52 363.435"></path><path id="_325603744" class="fil1" d="m1548.52 561.009-460.523 363.435c-20.73 16.36-50.844 12.833-67.217-7.892-16.374-20.727-12.845-50.862 7.893-67.229l460.523-363.435c20.73-16.359 50.844-12.832 67.216 7.893 16.375 20.727 12.846 50.862-7.892 67.228z"></path><path id="_325603456" class="fil1" d="m1365.48 1453.86-325.752-274.839c-20.15-17-22.668-47.446-5.647-67.564 17.017-20.112 47.405-22.625 67.532-5.643l325.752 274.839c20.15 17 22.668 47.446 5.647 67.564-17.017 20.111-47.405 22.625-67.532 5.643z"></path></g></g><path style="fill:none" d="M0 0h2048v2048H0z"></path></svg></svg></g></svg>